HIERARCHY
ROOT Hips
{
	OFFSET 0 0 0
	CHANNELS 6 Xposition Yposition Zposition Yrotation Xrotation Zrotation
	JOINT Spine
	{
		OFFSET -0 8.44927 -2.6932
		CHANNELS 3 Yrotation Xrotation Zrotation
		JOINT Spine1
		{
			OFFSET -0 9.25792 0
			CHANNELS 3 Yrotation Xrotation Zrotation
			JOINT Spine2
			{
				OFFSET -0 9.25792 0
				CHANNELS 3 Yrotation Xrotation Zrotation
				JOINT Spine3
				{
					OFFSET -0 9.25792 0
					CHANNELS 3 Yrotation Xrotation Zrotation
					JOINT Neck
					{
						OFFSET -0 8.27543 3.6932
						CHANNELS 3 Yrotation Xrotation Zrotation
						JOINT Head
						{
							OFFSET -0 10.5616 0
							CHANNELS 3 Yrotation Xrotation Zrotation
							End Site
							{
								OFFSET 0 15 0
							}
						}
					}
					JOINT LeftShoulder
					{
						OFFSET 1.76026 -0.446652 3.52053
						CHANNELS 3 Yrotation Xrotation Zrotation
						JOINT LeftArm
						{
							OFFSET 15.3604 0 0
							CHANNELS 3 Yrotation Xrotation Zrotation
							JOINT LeftForeArm
							{
								OFFSET 29.3264 0 0
								CHANNELS 3 Yrotation Xrotation Zrotation
								JOINT LeftHand
								{
									OFFSET 24.1271 0 0
									CHANNELS 3 Yrotation Xrotation Zrotation
									End Site
									{
										OFFSET 15 0 0
									}
								}
							}
						}
					}
					JOINT RightShoulder
					{
						OFFSET -1.76026 -0.446652 3.52053
						CHANNELS 3 Yrotation Xrotation Zrotation
						JOINT RightArm
						{
							OFFSET -15.3604 0 0
							CHANNELS 3 Yrotation Xrotation Zrotation
							JOINT RightForeArm
							{
								OFFSET -29.3264 0 0
								CHANNELS 3 Yrotation Xrotation Zrotation
								JOINT RightHand
								{
									OFFSET -24.1271 0 0
									CHANNELS 3 Yrotation Xrotation Zrotation
									End Site
									{
										OFFSET -15 0 0
									}
								}
							}
						}
					}
				}
			}
		}
	}
	JOINT LeftUpLeg
	{
		OFFSET 10.5616 -3.52053 0
		CHANNELS 3 Yrotation Xrotation Zrotation
		JOINT LeftLeg
		{
			OFFSET -0 -43.1823 2.46437
			CHANNELS 3 Yrotation Xrotation Zrotation
			JOINT LeftFoot
			{
				OFFSET -0 -38.2901 -2.46437
				CHANNELS 3 Yrotation Xrotation Zrotation
				JOINT LeftToeBase
				{
					OFFSET -0 -9.36021 14.7518
					CHANNELS 3 Yrotation Xrotation Zrotation
					End Site
					{
						OFFSET 0 0 5
					}
				}
			}
		}
	}
	JOINT RightUpLeg
	{
		OFFSET -10.5616 -3.52053 0
		CHANNELS 3 Yrotation Xrotation Zrotation
		JOINT RightLeg
		{
			OFFSET -0 -43.1823 2.46437
			CHANNELS 3 Yrotation Xrotation Zrotation
			JOINT RightFoot
			{
				OFFSET -0 -38.2901 -2.46437
				CHANNELS 3 Yrotation Xrotation Zrotation
				JOINT RightToeBase
				{
					OFFSET -0 -9.36021 14.7518
					CHANNELS 3 Yrotation Xrotation Zrotation
					End Site
					{
						OFFSET 0 0 5
					}
				}
			}
		}
	}
}
MOTION
Frames: 12
Frame Time: 0.00833333
0 96.638961 0 0 0 0 0 0 0 0 0 0 0 0 0 0 0 0 0 0 0 0 0 0 0 0 0 0 0 0 0 0 0 0 0 0 0 0 0 0 0 0 0 0 0 0 0 0 0 0 0 0 0 0 0 0 0 0 0 0 0 0 0 0 0 0 0 0 0 0 0 0
61.818781 97.903076 -48.969366 162.123131 0.676703 -0.871336 1.278765 1.135209 2.653090 1.325477 1.349933 1.593115 0.215729 1.520471 0.619018 -0.126997 1.678079 -0.159723 6.674667 1.699512 -8.245490 2.278166 -7.580720 2.278975 11.727820 3.139777 6.324763 -47.947021 5.822363 -88.635183 -37.133926 21.849129 12.495937 32.354509 -43.027907 -33.770931 -24.962488 10.406703 -16.282328 84.202206 1.458304 68.591693 37.393419 10.536161 -14.717503 -32.532390 -29.857660 35.809202 10.564203 3.854015 -4.263076 0.000000 0.682453 0.000000 21.077954 -3.643454 1.029165 0.000000 -3.699784 0.000000 -4.871341 0.269482 2.624384 0.000000 2.705980 0.000000 1.609250 -0.289806 -8.810943 0.000000 -7.081216 0.000000
61.807471 97.897424 -48.984024 162.082574 0.671846 -0.886264 1.087988 1.244648 2.590143 1.138028 1.204535 1.645313 0.395774 1.502871 0.680049 0.077433 1.753575 -0.181532 6.732994 1.693495 -8.128107 2.324731 -7.528763 2.073701 11.716724 3.155660 6.308591 -47.908361 5.802635 -88.662848 -37.162693 21.815187 12.500241 32.376912 -42.955126 -33.704480 -24.957569 10.400336 -16.337254 84.150090 1.434194 68.589139 37.415123 10.585519 -14.705943 -32.542385 -29.867965 35.798568 10.538869 3.857918 -4.263582 0.000000 0.695184 0.000000 21.146310 -3.672936 1.065079 0.000000 -3.719091 0.000000 -4.887987 0.257784 2.628398 0.000000 2.744682 0.000000 1.661558 -0.301193 -8.820502 0.000000 -7.116770 0.000000
61.797858 97.892010 -48.994006 162.059138 0.665351 -0.902402 1.081416 1.172226 2.616052 1.148512 1.305718 1.633805 0.389063 1.517322 0.660344 0.083184 1.735799 -0.185805 6.713773 1.681734 -8.080907 2.316117 -7.555894 2.074371 11.697510 3.151516 6.362884 -47.898342 5.777043 -88.673977 -37.192996 21.825603 12.498008 32.450012 -42.910320 -33.669151 -24.937174 10.368898 -16.346938 84.104431 1.388303 68.636376 37.425847 10.596396 -14.715249 -32.521624 -29.847922 35.782210 10.502806 3.861982 -4.259853 0.000000 0.701963 0.000000 21.206695 -3.695030 1.095866 0.000000 -3.717680 0.000000 -4.897493 0.240918 2.634014 0.000000 2.797926 0.000000 1.694660 -0.320196 -8.809904 0.000000 -7.123910 0.000000
61.786310 97.888751 -49.008817 162.035915 0.664955 -0.921538 0.950788 1.250837 2.574954 1.032352 1.196936 1.665045 0.509669 1.492024 0.706480 0.224200 1.797800 -0.177844 6.685491 1.685084 -8.099016 2.302806 -7.553903 2.081875 11.696439 3.210741 6.350043 -47.922287 5.719823 -88.669813 -37.176285 21.819014 12.520235 32.433385 -42.867139 -33.697653 -24.943346 10.389140 -16.390455 84.034280 1.408940 68.595269 37.500764 10.640363 -14.685733 -32.539088 -29.832690 35.841482 10.500620 3.869404 -4.252936 0.000000 0.701047 0.000000 21.229411 -3.716562 1.123581 0.000000 -3.720608 0.000000 -4.865002 0.224297 2.643026 0.000000 2.838819 0.000000 1.691484 -0.339844 -8.807047 0.000000 -7.116357 0.000000
61.773450 97.887354 -49.019290 162.032195 0.662127 -0.939859 0.960659 1.146374 2.605907 1.059867 1.302975 1.649687 0.476085 1.557426 0.688494 0.200717 1.754104 -0.160817 6.678490 1.685289 -8.088287 2.296624 -7.587451 2.099051 11.693936 3.185107 6.387434 -47.908310 5.682677 -88.699714 -37.164081 21.824682 12.511844 32.418452 -42.810964 -33.680917 -24.926379 10.402617 -16.390403 83.985475 1.415394 68.547539 37.569616 10.662232 -14.650238 -32.529925 -29.869159 35.786854 10.464748 3.875232 -4.248245 0.000000 0.695793 0.000000 21.268033 -3.731794 1.164678 0.000000 -3.723166 0.000000 -4.847791 0.210154 2.651241 0.000000 2.881942 0.000000 1.677708 -0.357712 -8.800920 0.000000 -7.086847 0.000000
61.763416 97.884241 -49.026758 162.018358 0.657328 -0.958556 0.914319 1.116564 2.621997 1.033807 1.334074 1.647014 0.509450 1.584547 0.684575 0.251978 1.755277 -0.168609 6.621357 1.709128 -8.108521 2.260830 -7.673498 2.169735 11.696610 3.175389 6.427542 -47.975768 5.635570 -88.713792 -37.125588 21.771522 12.553498 32.395616 -42.750625 -33.690076 -24.929619 10.411861 -16.392073 83.994689 1.426738 68.513864 37.612426 10.651243 -14.656980 -32.482481 -29.908868 35.749021 10.436292 3.883181 -4.241551 0.000000 0.688548 0.000000 21.306470 -3.749199 1.201077 0.000000 -3.716856 0.000000 -4.872545 0.193518 2.660177 0.000000 2.931572 0.000000 1.715014 -0.370028 -8.786674 0.000000 -7.099012 0.000000
61.752142 97.878705 -49.035141 162.009101 0.653764 -0.974356 0.909695 1.116208 2.634057 1.047669 1.324164 1.642522 0.492973 1.589763 0.681025 0.242782 1.769122 -0.154374 6.583896 1.717789 -8.060669 2.250797 -7.683751 2.094707 11.711441 3.173821 6.447862 -47.945879 5.590857 -88.738561 -37.107928 21.765761 12.546953 32.436111 -42.766902 -33.683905 -24.915021 10.432680 -16.405058 83.992506 1.450733 68.468652 37.634915 10.685936 -14.675103 -32.413998 -30.105119 35.821572 10.406708 3.885819 -4.238050 0.000000 0.688664 0.000000 21.346223 -3.757414 1.236240 0.000000 -3.730328 0.000000 -4.933400 0.183194 2.664542 0.000000 2.970198 0.000000 1.788898 -0.387705 -8.783117 0.000000 -7.062794 0.000000
61.737164 97.873529 -49.044406 161.984179 0.645998 -0.988867 0.929452 1.112199 2.658285 1.093385 1.337717 1.635610 0.459816 1.587120 0.669571 0.223685 1.770633 -0.144017 6.565517 1.739481 -8.042426 2.244571 -7.698555 2.077635 11.719197 3.167289 6.471747 -47.961420 5.567116 -88.772197 -37.072563 21.774798 12.579192 32.416702 -42.821014 -33.738992 -24.878958 10.432839 -16.442258 83.948850 1.426371 68.478537 37.647376 10.710535 -14.671637 -32.370849 -30.171354 35.798668 10.511855 3.893598 -4.227311 0.000000 0.711753 0.000000 21.271201 -3.776896 1.241151 0.000000 -3.738086 0.000000 -4.904097 0.156610 2.667150 0.000000 3.038234 0.000000 1.784648 -0.405483 -8.769581 0.000000 -7.060497 0.000000
61.725659 97.869806 -49.054703 161.959410 0.642747 -1.010073 0.926914 1.109604 2.677835 1.103497 1.325540 1.640892 0.457508 1.599607 0.657942 0.232715 1.791870 -0.162374 6.556047 1.740915 -7.996142 2.241909 -7.719961 2.067469 11.717056 3.151538 6.511762 -47.960189 5.548187 -88.790930 -37.060133 21.772595 12.588123 32.443710 -42.896931 -33.795297 -24.845434 10.440953 -16.448887 83.896038 1.394180 68.467016 37.653228 10.753173 -14.645333 -32.327931 -30.257480 35.801186 10.583987 3.905105 -4.212492 0.000000 0.709769 0.000000 21.226909 -3.790384 1.274811 0.000000 -3.738558 0.000000 -4.896182 0.140812 2.678856 0.000000 3.082488 0.000000 1.806205 -0.425408 -8.758553 0.000000 -7.021156 0.000000
61.717377 97.870001 -49.068140 161.947848 0.641650 -1.022536 0.937911 1.081835 2.679900 1.120056 1.326673 1.638806 0.449438 1.608960 0.657289 0.226983 1.820052 -0.157531 6.544204 1.738768 -7.973507 2.238671 -7.715884 2.060909 11.700624 3.155503 6.531904 -47.962144 5.522588 -88.809802 -37.046421 21.709801 12.619997 32.396041 -42.900261 -33.807649 -24.807978 10.457411 -16.450898 83.872958 1.411229 68.435976 37.683593 10.766408 -14.625781 -32.299267 -30.287984 35.788654 10.575333 3.913042 -4.208959 0.000000 0.708709 0.000000 21.250123 -3.806317 1.290686 0.000000 -3.760540 0.000000 -4.878594 0.133276 2.684515 0.000000 3.108694 0.000000 1.790339 -0.427019 -8.761020 0.000000 -7.020168 0.000000
61.707104 97.868842 -49.077438 161.915478 0.635802 -1.038060 0.903280 1.080630 2.698020 1.091185 1.335608 1.679297 0.546271 1.626508 0.702570 0.336496 1.883549 -0.148777 6.460984 1.657183 -8.169593 2.185339 -7.671516 2.171946 11.547563 3.080896 6.427032 -47.893420 5.555089 -88.821490 -37.084663 21.703323 12.583291 32.350080 -42.896212 -33.756133 -24.994045 10.367259 -16.592202 83.991924 1.365587 68.373179 37.688545 10.755592 -14.587713 -32.240734 -30.270013 35.669393 10.582708 3.921573 -4.204765 0.000000 0.707907 0.000000 21.277996 -3.815949 1.330145 0.000000 -3.754144 0.000000 -4.815814 0.114065 2.692727 0.000000 3.154361 0.000000 1.757663 -0.436846 -8.762568 0.000000 -7.010824 0.000000
